<svg width="18" height="10" viewBox="0 0 18 10" fill="none" xmlns="http://www.w3.org/2000/svg">
<g clip-path="url(#clip0_49_2)">
<path d="M7.616 9.07712H4.077C2.949 9.07712 1.98767 8.67979 1.193 7.88512C0.398334 7.09045 0.000667503 6.12879 8.3682e-07 5.00012C-0.00066583 3.87145 0.397001 2.90979 1.193 2.11512C1.989 1.32045 2.95033 0.922786 4.077 0.922119H7.616V1.92212H4.077C3.23033 1.92212 2.506 2.22345 1.904 2.82612C1.30133 3.42945 1 4.15412 1 5.00012C1 5.84612 1.30133 6.57045 1.904 7.17312C2.50667 7.77579 3.231 8.07712 4.077 8.07712H7.616V9.07712ZM5.5 5.50012V4.50012H12.5V5.50012H5.5ZM10.385 9.07712V8.07712H13.923C14.7697 8.07712 15.494 7.77579 16.096 7.17312C16.6987 6.57045 17 5.84612 17 5.00012C17 4.15412 16.6987 3.42979 16.096 2.82712C15.4933 2.22445 14.769 1.92312 13.923 1.92312H10.385V0.923119H13.923C15.051 0.923119 16.0127 1.32045 16.808 2.11512C17.6033 2.90979 18.0007 3.87145 18 5.00012C17.9993 6.12879 17.6017 7.09045 16.807 7.88512C16.0123 8.67979 15.051 9.07745 13.923 9.07812L10.385 9.07712Z" fill="black"/>
</g>
<defs>
<clipPath id="clip0_49_2">
<rect width="18" height="8.156" fill="white" transform="translate(0 0.922119)"/>
</clipPath>
</defs>
</svg>
